<?xml version="1.0" encoding="UTF-8"?>
<svg id="set" xmlns="http://www.w3.org/2000/svg" viewBox="0 0 131.5853 21.0936">
  <path d="m111.5517,6.5074s.1467.0155.4258.0812c.2698.0887.677.2408,1.1115.5902.4301.3464.8876.883,1.1972,1.6268.2927.7365.471,1.7103.1341,2.7187-.3391.9922-1.1421,1.9322-2.2697,2.4811-1.1162.5421-2.578.6965-3.9357.1539-1.3595-.5196-2.4923-1.7143-3.1302-3.1785-.3101-.7426-.472-1.5674-.4729-2.4152.0138-.8497.2334-1.7023.5936-2.499.7202-1.6038,2.0874-2.9408,3.7698-3.7528,1.6736-.8395,3.8156-.9371,5.6475-.1547,1.8436.758,3.3732,2.2459,4.3167,4.0598.946,1.8048,1.2825,4.0342.7327,6.0838-.2338,1.0332-.6956,2.0071-1.2656,2.8963-.5645.8984-1.2815,1.6935-2.0779,2.387-.7885.7058-1.671,1.302-2.6066,1.7919-.929.5045-1.9187.8951-2.9387,1.1757-4.1459,1.1144-8.4486.319-12.2483-.9865-3.6148-1.209-7.4763-3.2432-11.4633-4.946-1.999-.8395-4.0448-1.574-6.0891-2.0669-.514-.1042-1.0249-.2079-1.5318-.3107-.5084-.0871-1.0186-.1225-1.5204-.1866-1.0047-.1352-1.9855-.1115-2.9379-.036-3.8323.3043-6.9452,1.9914-8.6019,3.6625-1.6971,1.6751-2.1437,3.0986-2.2996,2.9287-.0764-.0975.2385-1.7044,1.9706-3.5784,1.7035-1.8469,4.935-3.6575,8.8982-4.0086.982-.0876,2.0169-.122,3.0443.0048.5143.0579,1.0378.0979,1.5591.1739.5168.1012,1.0378.2031,1.5621.3058,2.0807.4795,4.1457,1.1991,6.1449,2.0253,3.9823,1.6887,7.7629,3.6668,11.2837,4.8888,1.8616.6487,3.7865,1.1439,5.7483,1.419l1.4785.1232c.4936.0571.9871-.0046,1.4813,0,.9965.0248,1.9571-.1559,2.9152-.3745,1.9044-.4785,3.7167-1.3641,5.2256-2.5982,1.4989-1.2341,2.7003-2.8438,3.2219-4.6649,1.1821-3.6416-.9152-7.7869-4.1269-9.2858-.7982-.3739-1.6676-.5999-2.5239-.6068-.8595-.0078-1.7107.1789-2.4919.5045-1.5702.6463-2.862,1.8494-3.5868,3.2655-.7643,1.4077-.8321,3.0542-.3149,4.4257.4939,1.3823,1.5312,2.4885,2.7203,3.0442,1.207.5446,2.5466.4662,3.613.0095,1.0801-.4488,1.8599-1.3014,2.216-2.2057.3505-.9158.2335-1.8507-.0214-2.5702-.2629-.7293-.6863-1.2677-1.0869-1.6265-.8331-.7143-1.4921-.7343-1.4696-.7754Z"/>
  <path d="m128.721,15.2122s.0051.0275.0035.0829c-.0011.0556-.0011.1398-.0427.2441-.0654.2059-.2909.5022-.6984.6289-.3786.1254-.9957.1872-1.4722-.3072-.0505-.0648-.0946-.1402-.1348-.2161-.0363-.0922-.0321-.1393-.0719-.1833-.079-.0771-.2134-.2411-.2903-.3886-.1721-.3105-.2622-.6878-.2528-1.0798.0212-.7767.3936-1.6502,1.1924-2.2012.8173-.5765,2.012-.476,2.9232.0946.9369.5409,1.6297,1.6344,1.7051,2.857.0473,1.2202-.4416,2.4584-1.2917,3.4356-.4228.5033-.9769.8576-1.5126,1.2534-.5864.3002-1.18.6235-1.8263.8141-1.2756.4388-2.6335.6405-4.0212.7745-2.788.2296-5.711-.1025-8.5866-.7678-5.783-1.3218-11.3092-4.0223-16.8858-5.532-.654-.1779-1.3328-.3625-2.031-.5523-.7102-.1259-1.4401-.2554-2.1837-.3873-.3725-.0624-.7468-.1367-1.1267-.1908-.3828-.0316-.7683-.0635-1.1558-.0956-.7757-.0504-1.557-.1606-2.3447-.1647-3.1566-.0954-6.3355.2816-9.1259.8262-.6935.1529-1.3559.3473-1.9985.5063-.6381.1749-1.2655.2943-1.8252.5161-1.1278.4126-2.1661.6964-2.9809,1.0493-1.6341.6921-2.6368,1.0471-2.6518.8821-.0149-.165.9317-.739,2.5315-1.5874.8084-.4025,1.8234-.7685,2.9438-1.2231.5551-.245,1.1828-.3703,1.8153-.5709.6394-.1763,1.2984-.3915,1.9921-.5506,1.4021-.2421,2.8737-.623,4.4267-.7135.7733-.0598,1.5538-.1852,2.3451-.1904.7919-.006,1.5879-.0122,2.3827-.0182,3.1693.128,6.3502.52,9.02,1.3415,5.7301,1.498,11.2493,4.2315,16.8752,5.63,2.806.7027,5.6336,1.0885,8.3283.942,1.342-.076,2.6624-.2593,3.8755-.6119,1.2289-.3239,2.2981-.9546,3.1313-1.7431.794-.8311,1.287-1.9039,1.2943-2.952.0131-1.0415-.5309-1.9982-1.3136-2.5292-.7638-.5339-1.7712-.6699-2.4735-.2484-.7055.4208-1.0986,1.1922-1.1544,1.8812-.0289.3482.0294.6833.1619.9653.0726.1433.1455.2589.2575.3838.0687.0568.0689.1663.0931.2243.0172.066.0611.1186.0887.1784.3415.4263.9247.4362,1.2813.3357.3873-.0913.6112-.3454.6939-.5322.0881-.1916.0709-.3127.0906-.3097Z"/>
  <path d="m19.9965,6.582c.021.0405-.6127.0586-1.4252.7466-.3921.3454-.8037.8688-1.07,1.5759-.2511.6999-.3819,1.6093-.051,2.5035.3338.8868,1.0817,1.7196,2.123,2.1954,1.0367.4691,2.3503.5679,3.5416.0606,1.2018-.4862,2.2054-1.5929,2.7532-2.9211.2653-.6742.3921-1.4102.3807-2.1586-.0263-.7509-.2359-1.5044-.5708-2.2121-.666-1.4256-1.9364-2.6235-3.456-3.3266-1.5254-.7269-3.3558-.7757-4.9677-.0696-3.2385,1.3609-5.4397,5.4289-4.4062,9.0788.2132.9152.6337,1.7797,1.1527,2.5766.5125.8047,1.1695,1.5241,1.9041,2.1552.7254.6424,1.5434,1.1889,2.4121,1.6378.8615.4634,1.7818.8219,2.727,1.0779.9443.2675,1.9092.432,2.8936.4546l1.4783.0344,1.4763-.1209c1.9589-.2359,3.8978-.6736,5.7552-1.3369,3.5174-1.16,7.3387-3.1792,11.393-4.9129,2.0329-.8535,4.1385-1.6096,6.2688-2.1145.5374-.1064,1.0716-.2122,1.6014-.3172.5328-.0886,1.0714-.1242,1.5987-.1869,1.0541-.1331,2.118-.1013,3.1259-.0084,4.069.3677,7.3767,2.2575,9.0509,4.1671,1.7155,1.9212,1.9632,3.4961,1.8284,3.4237-.2144.0018-.7398-1.4643-2.4818-3.1067-1.7151-1.6234-4.7903-3.2288-8.5407-3.4993-.932-.0659-1.891-.0875-2.8725.0466-.4902.0618-.9877.1043-1.4854.1813-.4948.1017-.9938.204-1.4958.3072-1.9975.4777-4.0008,1.1847-5.9623,2.0032-3.9089,1.6712-7.7183,3.6684-11.3317,4.9388-1.9109.6733-3.9121,1.1941-5.9753,1.4804l-1.5619.1285c-.5205.0576-1.0487-.0049-1.5733-.0027-1.0484.0214-2.1155-.1755-3.1418-.4178-2.0545-.5267-3.997-1.4887-5.6286-2.8435-1.6194-1.3531-2.9403-3.1436-3.5068-5.1967-.6196-2.0326-.3687-4.2834.5359-6.118.8892-1.8473,2.3766-3.3804,4.1947-4.2042.9078-.4068,1.8851-.6449,2.8694-.6375.9799.0073,1.9299.236,2.7885.6123,1.7234.7499,3.0999,2.085,3.8693,3.661.8109,1.5631.8489,3.4199.2435,4.9057-.5772,1.4987-1.7302,2.6724-3.0489,3.2481-1.3436.5662-2.802.4336-3.9221-.0872-1.1399-.5128-1.9478-1.4504-2.2948-2.4267-.3425-.9942-.1801-1.9637.1098-2.6955.2997-.7419.7564-1.2731,1.1794-1.6172.4289-.3459.8298-.4968,1.0959-.5833.2746-.0646.4193-.0792.4193-.0792Z"/>
  <path d="m2.8895,15.2123c.0191-.0028.0044.1076.0837.2791.0742.1667.2725.3998.6364.4903.335.1002.8876.0852,1.2019-.2901.0331-.0485.0602-.1023.0873-.1559.0185-.0423.0258-.1607.0851-.2332.1278-.149.1882-.2325.2609-.3763.1318-.265.195-.5837.1738-.9191-.0397-.6642-.4089-1.42-1.0783-1.8418-.6557-.4373-1.6408-.3324-2.3944.1736-.788.4903-1.3268,1.4159-1.3648,2.429-.0112,1.0255.4336,2.0942,1.2003,2.9323.3735.4272.8839.7297,1.3639,1.075.5428.2572,1.0804.5414,1.6901.7058,1.1907.3832,2.5045.5533,3.8344.6567,2.6752.1706,5.49-.1904,8.2867-.8728,5.612-1.3466,11.1153-4.0715,16.833-5.5972.6703-.1798,1.3661-.3663,2.0817-.5582.7318-.1296,1.4839-.263,2.2501-.3986.3837-.0643.7697-.1404,1.1608-.1961.3942-.0331.7911-.0666,1.1901-.1001.7987-.053,1.6036-.1652,2.4146-.1698,3.2491-.0981,6.5224.298,9.3802.9047.7103.1683,1.3876.3806,2.0427.5605.6507.1954,1.2881.3383,1.8553.5865,1.1426.4651,2.1831.8128,2.9852,1.2415,1.61.8453,2.5193,1.3964,2.3865,1.5056-.1327.1091-1.1791-.2613-2.8141-.946-.827-.321-1.8458-.6168-2.9579-1.0116-.5508-.2148-1.1717-.3131-1.7948-.4889-.6298-.1516-1.2768-.3445-1.9566-.4839-1.3743-.2027-2.8101-.554-4.3234-.6237-.7533-.0493-1.5131-.1663-2.2827-.165-.77-.0014-1.5438-.0026-2.3168-.004-3.0844.1422-6.1547.5164-8.7644,1.3344-5.5853,1.4808-11.1279,4.1784-16.9227,5.5373-2.884.6782-5.8171,1.0267-8.6179.8134-1.396-.1102-2.7578-.3297-4.0428-.7377-1.2961-.3785-2.4694-1.093-3.3785-2.0133C.4973,17.2943-.0267,16.0723.001,14.8568c.021-1.2147.7042-2.3196,1.6107-2.8816.8958-.5804,2.0654-.7019,2.8846-.1697.7991.5254,1.1792,1.3868,1.211,2.1482.0151.3847-.0667.7542-.2287,1.0594-.0819.1483-.1882.2942-.2904.3935-.0567.0467-.0531.1076-.0848.1853-.0253.0766-.0792.1396-.1171.2068-.434.4757-1.0401.4246-1.4025.3033-.3937-.1204-.6-.3996-.6601-.5878-.038-.0959-.0379-.1738-.0379-.2253-.0013-.0512.0037-.0766.0037-.0766Z"/>
  <g>
    <path d="m65.7927,12.339l-.3106-.8083c-.1271-.3322-3.1-8.1612-1.3572-10.6973.3806-.5531.9412-.8334,1.6678-.8334s1.2871.2803,1.6677.8334c1.743,2.5361-1.2301,10.3651-1.3572,10.6973l-.3105.8083Zm0-11.6747c-.5009,0-.8676.1782-1.1202.5454-1.141,1.6599.2189,6.6219,1.1202,9.2286.9013-2.6067,2.261-7.5687,1.1202-9.2286-.2527-.3672-.6195-.5454-1.1202-.5454Z"/>
    <path d="m66.6515,12.2364l.0934-.6123c.1117-.7249,1.1695-7.082,3.9098-7.082.4532,0,.9186.1773,1.3849.5276.7048.5302,1.024,1.1578.9496,1.8649-.2595,2.4578-5.5506,4.9373-5.7763,5.0415l-.5614.2603Zm4.0032-7.03c-1.6573,0-2.7359,3.7955-3.1408,5.8823,1.6789-.8629,4.6527-2.6922,4.8145-4.2242.0494-.465-.1756-.8784-.6885-1.2637-.3478-.2617-.6799-.3944-.9852-.3944Z"/>
    <path d="m64.9337,12.2364l-.5614-.2603c-.2258-.1042-5.5159-2.5837-5.7763-5.0415-.0744-.7071.2448-1.3347.9498-1.8649.4662-.3503.9324-.5276,1.3856-.5276,2.7404,0,3.7974,6.3571,3.9089,7.082l.0934.6123Zm-4.0023-7.03c-.3061,0-.6384.1327-.986.3944-.5121.3853-.7379.7983-.6885,1.2637.1616,1.532,3.1355,3.3613,4.8145,4.2242-.4048-2.0872-1.4844-5.8823-3.14-5.8823Z"/>
  </g>
</svg>