<?xml version="1.0" encoding="UTF-8"?>
<svg id="Demon_Heart" data-name="Demon Heart" xmlns="http://www.w3.org/2000/svg" xmlns:xlink="http://www.w3.org/1999/xlink" viewBox="0 0 50 50">
  <defs>
    <style>
      .cls-1 {
        fill: #2d011a;
      }

      .cls-2 {
        fill: url(#linear-gradient-2);
      }

      .cls-3 {
        fill: #701447;
      }

      .cls-4 {
        fill: url(#linear-gradient);
      }
    </style>
    <linearGradient id="linear-gradient" x1="36.25" y1="20.1749" x2="36.25" y2="11.6681" gradientUnits="userSpaceOnUse">
      <stop offset="0" stop-color="#701447"/>
      <stop offset=".4874" stop-color="#6e1345"/>
      <stop offset=".663" stop-color="#671141"/>
      <stop offset=".7881" stop-color="#5b0e39"/>
      <stop offset=".8892" stop-color="#4a092d"/>
      <stop offset=".9749" stop-color="#34031f"/>
      <stop offset="1" stop-color="#2d011a"/>
    </linearGradient>
    <linearGradient id="linear-gradient-2" x1="13.75" x2="13.75" xlink:href="#linear-gradient"/>
  </defs>
  <path class="cls-1" d="m47.5,27.1488c-1.4721-.6421-3.2959-.3764-4.5264.6201-1.0546.8637-1.6698,2.2366-1.648,3.5874-1.2305-.5093-2.7246-.3322-3.8012.4871-.9008.6865-1.4501,1.7717-1.5161,2.9009-1.2085-.9079-2.9224-1.1072-4.3067-.4428-1.2305.5978-2.1313,1.8601-2.3291,3.233-.3955-.6421-1.0986-1.1958-1.9555-1.5722-.6373-.2657-1.6699-.4208-2.4171-.4873-.747.0665-1.7798.2215-2.4169.4873-.857.3764-1.5601.93-1.9556,1.5722-.1977-1.373-1.0986-2.6352-2.3291-3.233-1.3843-.6644-3.0981-.4651-4.3067.4428-.0658-1.1293-.6152-2.2145-1.5161-2.9009-1.0766-.8193-2.5708-.9964-3.8012-.4871.022-1.3508-.5933-2.7237-1.648-3.5874-1.2305-.9965-3.0542-1.2623-4.5264-.6201,8.1519-10.585,18.1055-5.9789,18.1055-5.9789,0,0-.6811,4.8495,4.3945,6.7983,5.0757-1.9487,4.3945-6.7983,4.3945-6.7983,0,0,9.9537-4.6061,18.1055,5.9789Z"/>
  <g>
    <path class="cls-4" d="m39.2953,11.6681c-.4727.8413-1.3676,2.2053-2.8674,3.4256-1.4476,1.1779-2.838,1.7169-3.692,1.973,1.6099,1.0361,3.2198,2.0721,4.8298,3.1082.492-.5698,2.0157-2.4733,2.1836-5.2656.085-1.4141-.2084-2.5446-.4539-3.2412Z"/>
    <path class="cls-2" d="m10.7048,11.6681c.4727.8413,1.3676,2.2053,2.8674,3.4256,1.4476,1.1779,2.838,1.7169,3.692,1.973-1.6099,1.0361-3.2198,2.0721-4.8298,3.1082-.492-.5698-2.0157-2.4733-2.1836-5.2656-.085-1.4141.2084-2.5446.4539-3.2412Z"/>
  </g>
  <path class="cls-3" d="m37.7223,25.2887c-3.3619,5.3811-11.4478,12.0023-12.7223,13.0432-1.2743-1.0409-9.3604-7.6621-12.7221-13.0432-2.0214-3.2553-1.9116-7.8835,2.5708-10.4745,4.4385-2.5687,8.2398.9744,10.1514,4.4954,1.9116-3.5211,5.713-7.0641,10.1514-4.4954,4.4825,2.591,4.5923,7.2192,2.5709,10.4745Z"/>
</svg>