<?xml version="1.0" encoding="UTF-8"?>
<svg id="Main" xmlns="http://www.w3.org/2000/svg" xmlns:xlink="http://www.w3.org/1999/xlink" viewBox="0 0 50 50">
  <defs>
    <style>
      .cls-1 {
        fill: #2d011a;
      }

      .cls-2 {
        fill: url(#linear-gradient-2);
      }

      .cls-3 {
        fill: #701447;
      }

      .cls-4 {
        fill: #ab5282;
      }

      .cls-5 {
        fill: #e690bd;
      }

      .cls-6 {
        fill: url(#linear-gradient);
      }
    </style>
    <linearGradient id="linear-gradient" x1="40.515" y1="14.4134" x2="40.515" y2="9.7379" gradientUnits="userSpaceOnUse">
      <stop offset="0" stop-color="#701447"/>
      <stop offset=".4874" stop-color="#6e1345"/>
      <stop offset=".663" stop-color="#671141"/>
      <stop offset=".7881" stop-color="#5b0e39"/>
      <stop offset=".8892" stop-color="#4a092d"/>
      <stop offset=".9749" stop-color="#34031f"/>
      <stop offset="1" stop-color="#2d011a"/>
    </linearGradient>
    <linearGradient id="linear-gradient-2" x1="28.1484" x2="28.1484" xlink:href="#linear-gradient"/>
  </defs>
  <g>
    <path class="cls-5" d="m41.3241,20.8754c-1.8478,2.9576-6.292,6.5968-6.9924,7.1688-.7004-.5721-5.1447-4.2113-6.9924-7.1688-1.111-1.7892-1.0507-4.3329,1.413-5.757,2.4395-1.4118,4.5288.5355,5.5794,2.4708,1.0507-1.9353,3.14-3.8826,5.5794-2.4708,2.4637,1.4241,2.5241,3.9678,1.413,5.757Z"/>
    <path class="cls-4" d="m41.3241,19.0497c-1.8478,2.9576-6.292,6.5968-6.9924,7.1688-.7004-.5721-5.1447-4.2113-6.9924-7.1688-1.111-1.7892-1.0507-4.3329,1.413-5.757,2.4395-1.4118,4.5288.5355,5.5794,2.4708,1.0507-1.9353,3.14-3.8826,5.5794-2.4708,2.4637,1.4241,2.5241,3.9678,1.413,5.757Z"/>
    <path class="cls-3" d="m41.3241,17.224c-1.8478,2.9576-6.292,6.5968-6.9924,7.1688-.7004-.5721-5.1447-4.2113-6.9924-7.1688-1.111-1.7892-1.0507-4.3329,1.413-5.757,2.4395-1.4118,4.5288.5355,5.5794,2.4708,1.0507-1.9353,3.14-3.8826,5.5794-2.4708,2.4637,1.4241,2.5241,3.9678,1.413,5.757Z"/>
  </g>
  <g>
    <path class="cls-5" d="m9.8799,42.8066v-11.2744l-.6548.4512-.4312-.3232c-1.0508-.7881-1.6514-1.8828-1.7847-3.2539l-.0459-.4746.4106-.2432c.8931-.5283,1.7349-1.1729,2.5059-1.918v-15.2603c0-2.4326.5371-4.354,1.5957-5.7095,1.0864-1.3906,2.6577-2.0952,4.6694-2.0952l.1074.0005c1.9048.0259,3.4175.7686,4.4971,2.2085,1.0303,1.377,1.5522,3.168,1.5522,5.3232,0,1.833-.2642,3.7393-.7856,5.6655-.4185,1.5474-1.0278,3.1084-1.8154,4.6543,1.6187.1431,2.9507.8301,3.9668,2.0483,1.1143,1.3379,1.6792,3.127,1.6792,5.3188v5.3643c.0098,1.0635.2095,3.6631,1.8564,4.6875.4385.2734.9375.4062,1.5244.4062,1.5508,0,3.4922-.9229,5.5469-1.8994,2.9678-1.4092,5.6953-3.3916,8.1045-5.8906l2.4443-2.5352-1.1992,3.3115c-.9434,2.6045-2.8877,6.2451-6.79,8.7969-1.1123.7266-5.0342,3.0986-8.8193,3.0986-1.6924,0-3.1494-.4717-4.333-1.4004-2.8882-2.2686-3.022-6.3477-2.9453-7.9961l-.001-6.0107c0-.9814-.2026-1.7373-.6021-2.2476-.3657-.4663-.8608-.6836-1.5571-.6836-.7275,0-1.3667.2383-1.9536.729-.6235.5205-1.1318,1.2539-1.5112,2.1797-.3906.9531-.5996,2.0762-.6201,3.3389v15.8174l-4.6113-4.1846ZM16.1084,7.0342c-.4253,0-1.7188,0-1.7188,3.4424v10.6538c.9077-1.5679,1.6436-3.1265,2.1968-4.6558.8008-2.2134,1.2065-4.3232,1.2065-6.271,0-1.124-.1724-1.9707-.5122-2.5176-.2812-.4507-.6426-.6519-1.1724-.6519Z"/>
    <path class="cls-3" d="m16.1447,3.4554c.0328,0,.0655.0002.0986.0006,1.6682.0226,2.9696.6591,3.906,1.9083.9352,1.2498,1.4023,2.8746,1.4023,4.8732,0,1.7722-.2524,3.5955-.7595,5.4699-.5071,1.8744-1.2914,3.7435-2.3505,5.606.2029-.0226.4057-.0339.6086-.0339,1.69,0,3.0369.602,4.0417,1.8067,1.0025,1.204,1.5049,2.817,1.5049,4.8388v5.3641c.0072.8164.1166,4.0211,2.2098,5.3238.5872.3654,1.2314.5194,1.9218.5194,1.7194,0,3.7274-.9539,5.8685-1.971,2.0706-.9836,5.1667-2.7752,8.3226-6.0484-.6334,1.7478-2.3567,5.7187-6.4958,8.4253-.8868.5799-4.7515,2.9763-8.4091,2.9763-1.3757,0-2.7213-.3386-3.8693-1.2403-2.8039-2.2023-2.7045-6.4127-2.6597-7.3706v-6.0464c0-1.1601-.2547-2.0622-.7619-2.71-.5071-.6466-1.223-.9711-2.1476-.9711-.901,0-1.713.3007-2.4342.9033-.7218.6026-1.2961,1.4251-1.7242,2.4711-.4287,1.0448-.654,2.2488-.6764,3.6109v14.1367l-3.1112-2.8238v-12.3683c-.4621.3177-.9242.6355-1.3863.9532-.8792-.6585-1.3751-1.5666-1.4878-2.7254,1.0367-.6133,1.9949-1.3633,2.8741-2.25v-15.5735c0-2.2714.4788-4.0216,1.437-5.2482.9409-1.2044,2.3004-1.8067,4.0776-1.8067m-2.5049,20.2774c1.6004-2.3623,2.8175-4.6967,3.6519-7.0032.8338-2.3053,1.2513-4.481,1.2513-6.526,0-1.2724-.2088-2.2435-.6257-2.9138-.4175-.6698-1.0202-1.0055-1.8092-1.0055-1.6458,0-2.4684,1.3972-2.4684,4.1922v13.2564M16.1447,1.9554c-2.2546,0-4.0242.8018-5.2596,2.3832-1.1645,1.4907-1.755,3.5671-1.755,6.1717v14.9367c-.6659.6138-1.3828,1.1491-2.1379,1.5958l-.8215.486.0923.9501c.1524,1.5677.8722,2.8752,2.0815,3.7809l.7855.5883v10.2904l.4919.4464,3.1112,2.8238,2.5081,2.2765v-17.5239c.019-1.1443.2089-2.1759.5641-3.0415.3325-.8123.769-1.4475,1.2978-1.8891.4531-.3786.921-.5548,1.4729-.5548.5782,0,.8134.2006.9673.3968.2931.3744.4422.9751.4422,1.7843v6.0123c-.0787,1.7868.0901,6.1156,3.2331,8.5842,1.3185,1.0356,2.932,1.5607,4.7958,1.5607,3.994,0,8.0745-2.4653,9.23-3.2209,4.075-2.6647,6.1021-6.4572,7.0851-9.1696l2.4012-6.6254-4.8913,5.0732c-2.3469,2.4342-5.0003,4.3636-7.8863,5.7346-1.9768.939-3.8437,1.8259-5.2249,1.8259-.4493,0-.8082-.0931-1.1292-.2929-1.3685-.8517-1.4959-3.3255-1.5024-4.0634v-5.351c0-2.3715-.6231-4.3224-1.8521-5.7985-.9225-1.106-2.071-1.8246-3.4282-2.1483.5978-1.2904,1.0745-2.5885,1.4236-3.879.5385-1.9905.8116-3.9626.8116-5.8616,0-2.3214-.5724-4.2633-1.7013-5.7719-1.2094-1.6134-2.9681-2.4808-5.0867-2.5095l-.1189-.0008h0Zm-1.0049,16.0857v-7.5646c0-1.2281.168-2.6922.9684-2.6922.2714,0,.3916.0671.5362.299.1814.2917.3986.8976.3986,2.1203,0,1.8603-.3909,3.8843-1.1619,6.0158-.218.6026-.4654,1.2104-.7413,1.8216h0Z"/>
  </g>
  <path class="cls-1" d="m46.6982,18.2464c-.8091-.3529-1.8115-.2069-2.4878.3408-.5797.4747-.9178,1.2293-.9058,1.9717-.6763-.2799-1.4975-.1826-2.0892.2677-.4951.3773-.797.9738-.8333,1.5944-.6642-.499-1.6062-.6086-2.3671-.2434-.6763.3286-1.1714,1.0223-1.2801,1.7769-.2174-.3529-.6038-.6572-1.0748-.8641-.3503-.146-.9178-.2313-1.3285-.2678-.4106.0365-.9782.1218-1.3284.2678-.471.2069-.8575.5112-1.0748.8641-.1086-.7546-.6038-1.4484-1.2801-1.7769-.7608-.3652-1.7028-.2556-2.3671.2434-.0362-.6207-.3381-1.2171-.8333-1.5944-.5917-.4503-1.413-.5476-2.0892-.2677.0121-.7424-.3261-1.497-.9058-1.9717-.6763-.5477-1.6787-.6938-2.4878-.3408,4.4805-5.8178,9.9512-3.2862,9.9512-3.2862,0,0-.3744,2.6654,2.4153,3.7365,2.7897-1.0711,2.4153-3.7365,2.4153-3.7365,0,0,5.4708-2.5316,9.9512,3.2862Z"/>
  <path class="cls-3" d="m41.3241,17.224c-1.8478,2.9576-6.292,6.5968-6.9924,7.1688-.7004-.5721-5.1447-4.2113-6.9924-7.1688-1.111-1.7892-1.0507-4.3329,1.413-5.757,2.4395-1.4118,4.5288.5355,5.5794,2.4708,1.0507-1.9353,3.14-3.8826,5.5794-2.4708,2.4637,1.4241,2.5241,3.9678,1.413,5.757Z"/>
  <g>
    <path class="cls-6" d="m42.1887,9.7379c-.2598.4624-.7517,1.2121-1.576,1.8828-.7957.6474-1.5598.9437-2.0292,1.0844.8848.5694,1.7697,1.1389,2.6546,1.7083.2704-.3132,1.1079-1.3594,1.2002-2.8941.0467-.7772-.1145-1.3986-.2495-1.7814Z"/>
    <path class="cls-2" d="m26.4747,9.7379c.2598.4624.7517,1.2121,1.576,1.8828.7957.6474,1.5598.9437,2.0292,1.0844-.8848.5694-1.7697,1.1389-2.6546,1.7083-.2704-.3132-1.1079-1.3594-1.2002-2.8941-.0467-.7772.1145-1.3986.2495-1.7814Z"/>
  </g>
</svg>